<svg width="34" height="23" viewBox="0 0 34 23" fill="none" xmlns="http://www.w3.org/2000/svg">
<path d="M0 8.28571C0 5.91878 1.94403 4 4.34211 4H28.6579C31.056 4 33 5.91878 33 8.28571V11.7143C33 14.0812 31.056 16 28.6579 16H4.3421C1.94403 16 0 14.0812 0 11.7143V8.28571Z" fill="#CDCDCD"/>
<path d="M3 5.31818C3 2.93332 4.9401 1 7.33333 1H24.6667C27.0599 1 29 2.93332 29 5.31818V15.6818C29 18.0667 27.0599 20 24.6667 20H7.33333C4.9401 20 3 18.0667 3 15.6818V5.31818Z" fill="white"/>
<path d="M29.129 4.78261C29.129 2.62149 27.3743 0.869565 25.2097 0.869565H7.79032C5.62572 0.869565 3.87097 2.62149 3.87097 4.78261V15.2174L3.87607 15.4186C3.98099 17.4862 5.69333 19.1304 7.79032 19.1304H25.2097C27.3743 19.1304 29.129 17.3785 29.129 15.2174V4.78261ZM30 15.2174C30 17.8588 27.8553 20 25.2097 20H7.79032C5.22742 20 3.13432 17.9906 3.00595 15.4637L3 15.2174V4.78261C3 2.14125 5.1447 7.00279e-08 7.79032 0H25.2097C27.8553 2.8012e-07 30 2.14125 30 4.78261V15.2174Z" fill="#CDCDCD"/>
<path d="M7 8.28571C7 5.91878 8.93332 4 11.3182 4H21.6818C24.0667 4 26 5.91878 26 8.28571V11.7143C26 14.0812 24.0667 16 21.6818 16H11.3182C8.93332 16 7 14.0812 7 11.7143V8.28571Z" fill="#CDCDCD"/>
<path d="M14.8671 21.7482C14.7086 21.0556 15.1415 20.3656 15.8341 20.2071L27.8014 17.4678C28.494 17.3092 29.184 17.7422 29.3426 18.4348C29.5011 19.1274 29.0681 19.8174 28.3755 19.9759L16.4083 22.7152C15.7157 22.8738 15.0257 22.4408 14.8671 21.7482Z" fill="#ACACAC"/>
<path d="M31.3573 13.8925C30.7423 14.1068 29.854 14.6047 29.2343 15.3592C28.7959 15.8931 28.4904 16.5517 28.507 17.3687L31.9033 16.186L32.4681 17.8062L28.9533 19.0306C29.352 19.7472 29.9383 20.0893 30.5576 20.2451C31.426 20.4635 32.3958 20.3151 33.0141 20.0997L33.5788 21.7199C32.7434 22.011 31.4213 22.2312 30.1394 21.9089C28.7936 21.5704 27.5344 20.6361 26.9991 18.7501C26.467 16.8752 27.0155 15.358 27.9086 14.2705C28.7729 13.218 29.954 12.5645 30.7926 12.2723L31.3573 13.8925Z" fill="#ACACAC"/>
<path d="M12 7.8C12 7.35817 12.4477 7 13 7C13.5523 7 14 7.35817 14 7.8V10.2C14 10.6418 13.5523 11 13 11C12.4477 11 12 10.6418 12 10.2V7.8Z" fill="white"/>
<path d="M19 7.8C19 7.35817 19.4477 7 20 7C20.5523 7 21 7.35817 21 7.8V10.2C21 10.6418 20.5523 11 20 11C19.4477 11 19 10.6418 19 10.2V7.8Z" fill="white"/>
</svg>
