<svg width="48" height="32" viewBox="0 0 48 32" fill="none" xmlns="http://www.w3.org/2000/svg">
<rect y="5.81445" width="45.7378" height="16.8508" rx="5" fill="#006DF0"/>
<rect x="4.81445" y="1" width="36.1088" height="26.4798" rx="5" fill="#FBFBFB" stroke="#006DF0" stroke-width="2"/>
<rect x="9.62891" y="5.81445" width="26.4798" height="16.8508" rx="5" fill="#006DF0"/>
<path d="M43.9395 19.001C43.0497 19.3111 41.7678 20.0278 40.8691 21.1221C40.203 21.9333 39.7475 22.9475 39.8096 24.209C39.8881 24.2264 39.9651 24.2488 40.04 24.2764L44.8398 22.6045L45.498 24.4932L41.2227 25.9814C41.2206 26.386 41.0831 26.77 40.8428 27.0791C41.396 27.757 42.0996 28.1219 42.834 28.3066C44.1018 28.6255 45.5059 28.408 46.3994 28.0967L46.7275 29.042L47.0566 29.9854C45.9099 30.3849 44.0966 30.6852 42.3467 30.2451C41.068 29.9235 39.8495 29.2063 38.9824 27.9219L23.0273 31.5752C22.0555 31.7975 21.0877 31.1897 20.8652 30.2178C20.6429 29.2459 21.2499 28.2783 22.2217 28.0557L37.8223 24.4834C37.6796 22.5974 38.3498 21.0403 39.3242 19.8535C40.5081 18.4118 42.1308 17.5132 43.2812 17.1123L43.9395 19.001Z" fill="#898989"/>
<rect x="16.8506" y="9.42578" width="2.40725" height="6.01813" rx="1.20363" fill="white"/>
<rect x="26.4795" y="9.42578" width="2.40725" height="6.01813" rx="1.20363" fill="white"/>
</svg>
