<svg width="78" height="57" viewBox="0 0 78 57" fill="none" xmlns="http://www.w3.org/2000/svg">
<rect x="6.74902" y="6.96387" width="67.2169" height="24.7641" rx="5" transform="rotate(10.2506 6.74902 6.96387)" fill="#006DF0"/>
<rect x="14.9707" y="1.25977" width="53.066" height="38.9151" rx="10" transform="rotate(10.2506 14.9707 1.25977)" fill="#FBFBFB" stroke="#006DF0" stroke-width="2"/>
<rect x="20.6738" y="9.48145" width="38.9151" height="24.7641" rx="5" transform="rotate(10.2506 20.6738 9.48145)" fill="#59A4FF"/>
<path d="M68.2247 36.4851L68.5363 38.4608C67.2409 38.6651 65.2975 39.3355 63.8027 40.6058C62.8242 41.4373 62.0362 42.5178 61.7268 43.9628L68.7312 42.8596L69.0428 44.8353L69.3535 46.8108L62.0517 47.9614C62.5983 49.3373 63.5618 50.1319 64.6412 50.6209C66.2712 51.3592 68.246 51.4153 69.5493 51.2098L69.8608 53.1864L70.1716 55.1609C68.3386 55.4499 65.5265 55.4137 62.9908 54.2652C60.9307 53.332 59.1125 51.6786 58.2005 49.09L33.3134 50.2401C31.8497 50.3076 30.6081 49.1749 30.5405 47.7112C30.4732 46.2475 31.6056 45.0067 33.0693 44.9392L57.6932 43.801C58.0836 41.089 59.4876 39.0252 61.2127 37.5591C63.3928 35.7064 66.0723 34.7988 67.9133 34.5085L68.2247 36.4851Z" fill="#898989"/>
<rect x="30.1733" y="16.5928" width="3.53773" height="8.84433" rx="1.76887" transform="rotate(10.2506 30.1733 16.5928)" fill="white"/>
<rect x="44.0986" y="19.1104" width="3.53773" height="8.84433" rx="1.76887" transform="rotate(10.2506 44.0986 19.1104)" fill="white"/>
</svg>
