<svg width="34" height="32" viewBox="0 0 34 32" fill="none" xmlns="http://www.w3.org/2000/svg">
<path d="M4.25 11.9993L17 2.66602L29.75 11.9993V26.666C29.75 27.3733 29.4515 28.0515 28.9201 28.5516C28.3888 29.0517 27.6681 29.3327 26.9167 29.3327H7.08333C6.33189 29.3327 5.61122 29.0517 5.07986 28.5516C4.54851 28.0515 4.25 27.3733 4.25 26.666V11.9993Z" fill="#CDCDCD"/>
<path d="M12.75 29.3327V15.9993H21.25V29.3327" fill="#CDCDCD"/>
<path d="M12.75 29.3327V15.9993H21.25V29.3327M4.25 11.9993L17 2.66602L29.75 11.9993V26.666C29.75 27.3733 29.4515 28.0515 28.9201 28.5516C28.3888 29.0517 27.6681 29.3327 26.9167 29.3327H7.08333C6.33189 29.3327 5.61122 29.0517 5.07986 28.5516C4.54851 28.0515 4.25 27.3733 4.25 26.666V11.9993Z" stroke="white" stroke-width="2" stroke-linecap="round" stroke-linejoin="round"/>
</svg>
